<?xml version="1.0" standalone="no"?>
<!DOCTYPE svg PUBLIC "-//W3C//DTD SVG 20010904//EN"
 "http://www.w3.org/TR/2001/REC-SVG-20010904/DTD/svg10.dtd">
<svg version="1.0" xmlns="http://www.w3.org/2000/svg"
 width="317.672449pt" height="303.116330pt" viewBox="0 0 317.672449 303.116330"
 preserveAspectRatio="xMidYMid meet">
<metadata>
Created by potrace 1.12, written by Peter Selinger 2001-2015
</metadata>
<g transform="translate(-22.292242,337.252449) scale(0.100000,-0.100000)"
fill="#000000" stroke="none">
<path d="M3000 3351 c-73 -22 -244 -111 -215 -111 6 0 62 14 125 31 114 30
114 30 180 14 90 -22 136 -67 145 -140 6 -47 3 -59 -34 -133 -34 -69 -52 -90
-121 -149 -51 -43 -90 -85 -105 -113 -20 -38 -87 -132 -166 -231 -24 -30 -37
-126 -20 -157 9 -17 6 -24 -22 -48 -17 -15 -53 -37 -79 -49 l-47 -22 43 -10
c47 -10 84 3 154 56 30 23 229 240 245 268 4 6 2 22 -4 36 -9 19 -7 31 5 56
12 23 14 36 6 50 -5 11 -10 24 -10 30 0 17 55 13 88 -6 28 -16 30 -16 61 6 74
53 168 241 156 313 -6 31 -11 38 -30 38 -28 0 -55 9 -55 19 0 4 23 18 50 31
28 13 50 26 50 29 -2 34 -105 141 -171 178 -77 43 -126 46 -229 14z"/>
<path d="M2880 3250 c-58 -17 -113 -28 -122 -26 -17 4 -105 -45 -173 -97 -22
-17 -79 -70 -127 -119 -85 -86 -102 -118 -79 -143 4 -6 14 -32 21 -60 7 -27
23 -73 37 -101 21 -43 34 -56 75 -75 27 -13 63 -38 78 -56 16 -18 34 -33 40
-33 6 0 26 33 45 74 19 41 47 93 63 115 16 22 35 60 41 83 10 39 22 51 131
132 124 91 211 135 268 136 31 0 32 1 32 44 0 28 -8 55 -23 76 -54 81 -145 96
-307 50z"/>
<path d="M2290 3223 c-113 -28 -155 -43 -190 -68 -25 -18 -80 -47 -123 -65
-42 -18 -76 -34 -75 -36 2 -1 40 4 84 13 l81 15 59 -30 c51 -25 74 -30 174
-36 l116 -7 97 85 c54 46 113 95 132 107 19 13 35 27 35 30 0 8 -162 29 -211
28 -19 0 -99 -16 -179 -36z"/>
<path d="M1980 3161 c-124 -31 -381 -139 -589 -249 l-114 -60 64 5 c54 5 85
16 194 73 72 37 215 98 318 136 115 42 201 80 220 96 18 15 30 27 27 27 -3 0
-57 -13 -120 -28z"/>
<path d="M2045 3065 c-5 -2 -31 -6 -58 -10 -54 -7 -54 -18 1 -36 20 -6 53 -24
73 -40 l36 -28 37 25 c20 14 34 29 31 34 -6 10 -94 60 -104 59 -3 0 -10 -2
-16 -4z"/>
<path d="M3082 3035 c-29 -13 -79 -44 -110 -68 -31 -24 -82 -61 -113 -81 -49
-32 -59 -44 -70 -84 -7 -26 -21 -60 -32 -76 -22 -31 -109 -198 -105 -200 2 -1
16 -6 32 -11 20 -7 32 -20 40 -45 14 -44 40 -46 44 -4 2 20 20 51 47 83 24 28
77 102 119 164 47 70 91 125 119 145 56 43 147 164 147 197 0 14 -71 2 -118
-20z"/>
<path d="M1830 3020 c-30 -4 -81 -18 -113 -30 -52 -20 -58 -25 -51 -44 4 -11
9 -48 11 -82 l5 -61 -31 -6 c-17 -4 -49 0 -73 9 -56 19 -123 35 -112 25 5 -4
44 -22 87 -41 59 -25 82 -41 98 -66 l21 -34 181 1 c130 1 196 5 230 16 26 8
47 18 47 22 0 4 -11 18 -25 31 -38 36 -50 88 -31 133 15 38 15 38 -17 67 -33
31 -125 71 -155 69 -9 -1 -42 -5 -72 -9z"/>
<path d="M2158 2972 c-41 -30 -71 -87 -71 -132 0 -35 49 -110 72 -110 14 -1
14 -2 -1 -14 -27 -20 -22 -55 20 -126 44 -76 174 -217 205 -222 28 -5 85 23
117 57 14 15 42 35 62 46 20 10 40 24 43 30 11 16 -73 96 -121 116 -55 23
-104 100 -104 166 0 29 -7 53 -19 69 -23 29 -19 61 12 95 11 13 18 25 16 27
-4 5 -163 26 -184 26 -5 -1 -27 -13 -47 -28z"/>
<path d="M1525 2912 c-85 -42 -96 -51 -75 -55 14 -3 49 -11 78 -17 28 -7 55
-16 58 -21 6 -10 45 -12 68 -3 25 10 21 83 -7 117 l-22 28 -100 -49z"/>
<path d="M1319 2833 c-45 -5 -59 -31 -59 -113 0 -71 16 -114 39 -104 32 13
107 22 144 17 30 -5 45 -15 75 -53 43 -56 88 -69 126 -39 21 16 22 23 16 72
-10 68 -40 127 -77 149 -49 28 -183 78 -206 76 -12 -1 -38 -3 -58 -5z"/>
<path d="M1161 2798 c-41 -18 -89 -47 -107 -66 -43 -44 -124 -198 -97 -183 11
5 26 17 33 26 7 8 49 47 94 87 l81 71 -95 -94 c-52 -52 -139 -136 -193 -187
-54 -50 -96 -92 -93 -92 22 0 180 78 248 123 l86 55 62 117 c58 108 82 176 63
175 -4 -1 -41 -15 -82 -32z"/>
<path d="M1217 2697 c-15 -32 -27 -61 -27 -66 0 -5 -24 -45 -54 -90 -60 -90
-64 -121 -16 -121 32 0 106 31 143 60 32 25 35 62 11 118 -9 20 -20 64 -23 97
l-8 60 -26 -58z"/>
<path d="M1975 2618 c-66 -39 -121 -72 -123 -73 -1 -1 7 -64 18 -139 11 -75
20 -152 20 -169 0 -31 4 -34 73 -64 86 -37 120 -35 287 17 89 28 111 31 143
23 33 -9 37 -8 37 9 0 40 -45 103 -138 192 -84 82 -103 106 -142 185 -24 50
-47 91 -50 91 -3 0 -59 -32 -125 -72z"/>
<path d="M1850 2670 c-63 -3 -108 -7 -98 -8 9 -1 35 -23 57 -48 24 -27 46 -44
54 -41 22 8 157 96 157 102 0 3 -12 4 -27 3 -16 -1 -80 -5 -143 -8z"/>
<path d="M1678 2603 c4 -61 9 -72 43 -109 47 -53 68 -93 86 -169 16 -66 17
-131 3 -185 -7 -28 -8 -22 -4 30 10 124 -35 259 -110 329 -23 21 -28 23 -56
11 -16 -7 -39 -10 -50 -7 -15 4 -30 -10 -69 -61 -55 -75 -133 -139 -179 -148
-16 -3 -46 -1 -65 5 -20 7 -52 9 -71 6 l-35 -7 24 -47 c35 -67 52 -89 131
-175 l72 -76 40 14 c34 12 49 12 97 1 53 -12 65 -20 101 -72 11 -16 26 -23 48
-23 45 0 71 31 96 115 20 67 20 68 15 21 -3 -27 -16 -69 -30 -94 -14 -24 -25
-47 -25 -49 0 -2 12 -3 28 -1 21 2 33 14 55 55 26 48 29 66 36 200 6 108 5
175 -5 248 -18 132 -32 172 -68 200 -25 18 -98 55 -111 55 -2 0 0 -30 3 -67z"/>
<path d="M2605 2473 c-27 -14 -63 -38 -80 -53 -16 -15 -44 -35 -62 -44 -17 -9
-34 -20 -38 -25 -7 -13 143 -101 171 -101 30 0 112 36 152 67 l33 25 -36 43
c-19 24 -35 50 -35 58 0 13 -21 36 -45 49 -5 4 -32 -5 -60 -19z"/>
<path d="M1055 2474 c-23 -19 -215 -114 -230 -114 -5 0 -21 -10 -35 -21 -20
-17 -21 -19 -5 -14 36 14 119 24 203 24 l83 1 -2 53 c-1 28 2 60 6 70 9 21 6
21 -20 1z"/>
<path d="M885 2331 c-47 -5 -92 -17 -136 -38 -78 -36 -97 -55 -41 -42 123 28
380 -13 477 -78 37 -25 36 -13 -4 46 -29 42 -56 67 -95 90 -58 33 -67 33 -201
22z"/>
<path d="M2429 2281 c12 -22 21 -56 21 -75 0 -21 12 -55 29 -84 16 -27 46 -98
67 -158 44 -126 127 -278 160 -292 21 -10 22 -8 29 36 9 55 8 301 -1 418 l-6
82 -78 15 c-46 9 -109 32 -152 54 -40 21 -77 39 -81 42 -5 2 1 -15 12 -38z"/>
<path d="M707 2238 l-69 -11 6 -30 c3 -17 8 -32 10 -35 3 -2 30 5 60 17 49 18
65 19 129 11 101 -13 213 -37 234 -50 16 -10 16 -10 -2 -6 -95 25 -163 37
-235 42 -74 6 -91 4 -126 -14 -58 -29 -66 -42 -53 -81 6 -17 13 -31 15 -31 2
0 29 16 59 36 l54 36 88 -6 c48 -4 117 -17 151 -29 54 -18 72 -31 122 -87 31
-36 69 -89 84 -117 14 -29 30 -53 34 -53 27 1 54 63 41 95 -16 42 -7 37 35
-22 25 -33 58 -70 74 -82 39 -27 88 -28 95 -1 4 15 -18 45 -85 119 -98 109
-210 199 -301 243 -107 52 -289 76 -420 56z m456 -138 c50 -34 103 -84 119
-115 6 -11 -19 8 -56 42 -36 35 -80 70 -96 78 -17 9 -30 18 -30 20 0 11 19 3
63 -25z"/>
<path d="M537 2153 c-62 -46 -74 -59 -60 -65 13 -5 9 -7 -14 -7 -22 -1 -59
-20 -121 -63 -82 -56 -91 -66 -107 -113 -16 -49 -16 -54 1 -108 17 -54 20 -57
65 -72 45 -15 50 -20 89 -98 46 -88 103 -157 131 -157 34 0 29 19 -17 56 l-46
38 7 69 c9 91 66 222 137 317 53 70 55 74 45 107 -6 20 -20 39 -32 43 -15 7
-16 9 -4 9 9 1 20 8 23 17 7 19 -3 84 -13 84 -4 0 -42 -26 -84 -57z m26 -60
c-13 -2 -33 -2 -45 0 -13 2 -3 4 22 4 25 0 35 -2 23 -4z"/>
<path d="M2240 2164 c-58 -18 -124 -36 -147 -40 -24 -3 -43 -8 -43 -11 0 -2
11 -14 26 -26 19 -17 26 -35 31 -79 5 -52 3 -61 -25 -105 -33 -50 -111 -118
-197 -171 -32 -20 -44 -32 -35 -35 8 -3 62 -19 120 -37 104 -32 131 -47 242
-140 l36 -31 17 51 c25 75 30 53 6 -25 -12 -37 -21 -80 -21 -95 0 -25 4 -28
45 -35 143 -21 202 -91 237 -282 11 -59 13 -63 39 -63 24 0 34 12 82 93 31 54
73 148 99 223 58 165 83 358 73 578 -7 170 -28 259 -59 254 -12 -2 -20 -10
-18 -18 2 -8 7 -91 11 -185 6 -126 5 -193 -5 -251 -7 -43 -13 -85 -13 -91 -1
-9 -9 -9 -34 3 -45 22 -100 110 -152 246 -64 169 -120 285 -144 298 -25 13
-23 17 -46 -90 -12 -54 -16 -113 -14 -210 3 -112 0 -141 -14 -170 -9 -19 -14
-26 -11 -15 4 11 10 106 14 210 4 105 10 197 13 205 14 38 16 80 4 79 -6 0
-59 -16 -117 -35z"/>
<path d="M1881 2124 c-6 -32 -11 -68 -11 -81 0 -25 -17 -62 -56 -124 l-22 -36
-67 8 c-74 9 -121 36 -131 74 -4 18 -15 26 -43 32 -55 11 -109 9 -122 -4 -13
-13 2 -35 73 -111 38 -40 39 -45 28 -72 -11 -27 -8 -36 30 -107 23 -43 69
-115 103 -161 55 -74 70 -87 127 -114 61 -28 161 -61 167 -54 2 1 9 20 17 42
16 43 21 27 7 -23 -9 -31 -8 -32 52 -68 34 -20 78 -49 97 -65 25 -22 11 -16
-49 20 -47 27 -97 52 -112 55 -42 9 -140 -30 -164 -65 -10 -15 -34 -35 -52
-44 -37 -18 -43 -36 -13 -36 16 0 31 -21 66 -93 40 -83 46 -104 51 -183 4 -64
1 -113 -11 -175 -10 -47 -16 -99 -14 -115 3 -26 8 -21 79 71 42 55 85 107 95
116 62 52 183 99 384 149 122 30 120 28 64 54 -43 20 -284 200 -284 212 0 2
42 -26 93 -64 134 -99 248 -164 262 -150 14 14 -26 173 -61 238 -33 63 -43 75
-83 92 -25 11 -71 25 -102 30 l-56 11 8 44 c8 42 7 44 -34 82 -88 81 -110 94
-220 132 -127 44 -162 48 -177 20 -5 -11 -10 -22 -10 -24 0 -3 37 -29 83 -58
45 -29 90 -63 100 -76 23 -29 59 -48 162 -85 46 -16 65 -26 45 -23 -65 9 -198
67 -212 93 -7 13 -42 41 -78 62 -36 22 -77 49 -93 62 l-27 23 26 43 c16 26 41
50 67 63 23 12 71 44 107 71 72 54 119 128 120 187 0 59 -89 148 -176 175 -19
6 -22 1 -33 -50z"/>
<path d="M743 2075 c-55 -37 -88 -81 -190 -250 -50 -83 -61 -111 -67 -162 -6
-51 -3 -69 13 -101 33 -64 41 -67 103 -29 47 28 77 37 194 55 77 12 159 25
184 27 25 3 78 16 119 28 l74 21 37 81 37 80 -23 53 c-35 81 -118 168 -182
192 -41 15 -175 38 -242 40 -3 0 -29 -16 -57 -35z m149 -37 c-12 -12 -35 -1
-27 12 3 5 13 6 21 3 10 -4 12 -9 6 -15z m-82 -33 c0 -8 -4 -15 -10 -15 -5 0
-10 7 -10 15 0 8 5 15 10 15 6 0 10 -7 10 -15z m-50 -46 c0 -5 -7 -9 -15 -9
-15 0 -20 12 -9 23 8 8 24 -1 24 -14z m174 5 c25 -9 19 -24 -9 -24 -24 0 -32
10 -18 23 8 8 8 8 27 1z m-224 -28 c0 -8 -4 -17 -9 -21 -12 -7 -24 12 -16 25
9 15 25 12 25 -4z m134 -22 c18 -7 10 -34 -10 -34 -8 0 -14 9 -14 20 0 22 1
23 24 14z m194 -12 c2 -7 -3 -12 -12 -12 -9 0 -16 7 -16 16 0 17 22 14 28 -4z
m-48 -31 c0 -3 -4 -12 -9 -19 -6 -10 -10 -10 -20 2 -15 18 -6 37 14 29 8 -3
15 -8 15 -12z m-222 -3 c-6 -18 -25 -20 -31 -3 -5 10 0 15 14 15 12 0 19 -5
17 -12z m-94 -49 c-13 -15 -19 -17 -26 -7 -4 8 -1 18 9 25 24 18 37 4 17 -18z
m248 -1 c-9 -9 -15 -9 -24 0 -10 10 -10 15 2 22 20 12 38 -6 22 -22z m-38 -17
c3 -5 -1 -15 -10 -22 -13 -10 -17 -10 -24 1 -5 8 -6 18 -4 22 7 11 31 10 38
-1z m136 -41 c-18 -11 -24 -6 -16 16 5 14 9 15 19 5 9 -9 9 -14 -3 -21z m-210
10 c0 -5 -7 -10 -15 -10 -8 0 -15 5 -15 10 0 6 7 10 15 10 8 0 15 -4 15 -10z
m305 0 c4 -6 1 -17 -5 -26 -10 -11 -16 -12 -26 -3 -11 9 -11 15 -3 25 14 17
25 18 34 4z m-153 -32 c-6 -6 -16 -7 -22 -3 -9 6 -9 9 1 16 17 10 34 0 21 -13z
m-244 -6 c2 -7 -3 -12 -12 -12 -9 0 -16 7 -16 16 0 17 22 14 28 -4z m310 -13
c-2 -6 -8 -10 -13 -10 -5 0 -11 4 -13 10 -2 6 4 11 13 11 9 0 15 -5 13 -11z
m-238 -34 c0 -8 -4 -15 -9 -15 -13 0 -22 16 -14 24 11 11 23 6 23 -9z m165 5
c3 -5 -3 -10 -15 -10 -12 0 -18 5 -15 10 3 6 10 10 15 10 5 0 12 -4 15 -10z
m195 -6 c0 -17 -22 -14 -28 4 -2 7 3 12 12 12 9 0 16 -7 16 -16z m-446 -13 c6
-9 -35 -24 -43 -15 -6 5 18 24 31 24 4 0 9 -4 12 -9z m-69 -11 c3 -5 -3 -10
-15 -10 -12 0 -18 5 -15 10 3 6 10 10 15 10 5 0 12 -4 15 -10z"/>
<path d="M1315 1836 c-15 -23 -14 -28 35 -118 44 -78 74 -115 190 -233 132
-133 140 -143 156 -202 10 -35 21 -63 26 -63 10 0 68 60 68 70 0 4 27 19 60
35 33 16 60 32 60 35 0 4 -30 15 -67 25 -113 30 -192 109 -301 300 -49 87 -53
91 -97 103 -26 7 -60 26 -77 42 -16 17 -31 30 -34 30 -2 0 -11 -11 -19 -24z"/>
<path d="M1220 1744 c-16 -37 -30 -68 -30 -70 0 -5 82 -46 85 -42 22 27 24 52
9 113 -9 36 -20 65 -25 65 -5 0 -22 -30 -39 -66z"/>
<path d="M1296 1760 c4 -19 8 -58 9 -86 1 -28 8 -60 16 -72 23 -32 310 -344
341 -371 16 -13 31 -21 33 -19 3 3 -4 31 -15 62 -16 49 -38 76 -136 179 -131
136 -195 217 -231 292 -21 45 -23 46 -17 15z"/>
<path d="M1025 1600 l-40 -6 30 -8 c17 -5 42 -20 57 -34 24 -22 33 -24 78 -19
45 5 65 1 152 -34 55 -22 102 -38 104 -36 10 9 -79 80 -139 111 -60 32 -77 36
-135 35 -37 -1 -85 -5 -107 -9z"/>
<path d="M380 1547 c0 -43 12 -61 71 -105 20 -15 156 -36 177 -27 14 6 12 10
-13 21 -27 12 -21 19 13 15 18 -3 15 13 -8 34 -18 16 -20 16 -44 -2 -19 -15
-22 -23 -13 -32 17 -17 -4 -14 -57 10 -36 16 -55 33 -82 75 -19 30 -37 54 -39
54 -3 0 -5 -19 -5 -43z"/>
<path d="M835 1585 c-5 -2 -22 -6 -37 -9 -20 -5 -28 -13 -29 -29 l0 -22 -10
23 c-8 20 -13 23 -41 17 -42 -9 -41 -8 -27 -39 12 -26 51 -36 64 -16 19 30 40
-11 36 -72 -1 -30 2 -38 16 -39 11 0 35 -26 58 -61 37 -56 70 -89 77 -78 2 3
2 78 0 168 l-3 162 -47 -1 c-26 0 -51 -2 -57 -4z"/>
<path d="M950 1478 l0 -104 38 -16 c20 -9 73 -29 117 -43 109 -37 109 -37 149
-104 30 -48 36 -68 36 -113 0 -30 3 -89 6 -131 6 -68 9 -75 24 -67 10 6 32 55
55 122 20 62 46 126 58 142 11 16 44 39 74 52 64 29 64 35 -1 124 -73 102
-227 180 -353 180 -57 0 -71 4 -92 24 -15 13 -45 27 -68 31 l-43 7 0 -104z
m178 -132 c35 -8 69 -19 75 -26 9 -9 6 -10 -13 -5 -142 34 -171 43 -150 44 14
0 54 -6 88 -13z m177 -128 c17 -59 21 -112 6 -88 -6 8 -13 37 -17 64 -5 37
-14 57 -35 77 -38 35 -37 46 1 19 20 -14 34 -37 45 -72z m24 -220 c1 -37 -3
-70 -9 -73 -6 -4 -10 29 -9 92 1 110 16 94 18 -19z"/>
<path d="M629 1531 l-24 -19 24 -26 c43 -46 75 -24 51 34 -15 35 -20 36 -51
11z"/>
<path d="M735 1493 c-11 -2 -25 -14 -30 -26 -6 -12 -20 -23 -32 -25 l-23 -3
29 -57 c27 -54 75 -112 92 -112 15 0 21 43 15 109 -9 85 -16 121 -24 120 -4
-1 -16 -4 -27 -6z"/>
<path d="M1577 1253 c4 -16 7 -125 7 -243 0 -195 -2 -220 -21 -265 -11 -27
-25 -51 -31 -53 -8 -2 -7 8 2 30 21 48 51 298 37 298 -12 0 -79 -136 -101
-205 -22 -66 -24 -68 -32 -42 -7 18 -19 29 -36 33 -15 3 -44 13 -65 21 -26 12
-41 13 -48 6 -13 -13 50 -87 95 -110 27 -14 31 -14 43 3 18 24 17 10 -2 -26
-18 -34 -23 -37 -21 -12 1 12 -6 17 -24 17 -18 0 -24 -5 -22 -17 2 -12 -3 -15
-20 -11 -13 3 -29 10 -36 16 -17 13 -29 0 -14 -15 14 -14 36 -19 80 -20 26 0
30 -3 21 -14 -15 -19 -69 -18 -97 2 -13 9 -26 14 -29 11 -9 -10 29 -111 51
-135 18 -20 27 -23 65 -18 125 17 212 116 282 324 l28 82 -25 152 c-21 127
-30 156 -52 184 -33 41 -45 43 -35 7z"/>
<path d="M1526 1209 c-67 -19 -106 -85 -106 -180 0 -49 34 -114 60 -114 7 0
33 32 57 70 l44 70 -6 75 c-3 41 -9 78 -13 81 -4 4 -20 3 -36 -2z"/>
<path d="M1660 1189 c0 -2 5 -20 11 -39 5 -19 18 -84 28 -144 l18 -108 -23
-81 c-27 -92 -101 -214 -168 -275 -29 -27 -57 -42 -98 -51 -32 -8 -58 -17 -57
-20 1 -11 56 -50 118 -86 41 -23 81 -36 120 -41 57 -6 61 -5 119 35 55 37 61
45 71 91 6 28 11 83 11 123 0 40 7 108 16 152 23 119 12 227 -33 337 -33 79
-39 87 -67 91 -17 2 -39 7 -48 12 -10 4 -18 6 -18 4z"/>
<path d="M1373 975 c-39 -106 -41 -130 -12 -146 28 -14 60 0 88 39 18 27 19
31 5 43 -25 21 -38 51 -44 104 l-5 50 -32 -90z"/>
<path d="M1140 826 c0 -26 123 -126 138 -112 3 3 14 -1 24 -11 10 -9 21 -13
25 -10 3 4 1 7 -6 7 -8 0 -7 6 4 16 13 14 14 19 3 25 -7 5 -10 9 -6 9 4 0 -4
11 -17 25 -14 13 -25 28 -25 33 0 7 -98 32 -128 32 -7 0 -12 -6 -12 -14z"/>
</g>
</svg>
